# xmcd CD database file
#
# Track frame offsets:
#	150
#	11210
#	29783
#	49518
#	67620
#	84793
#
# Disc length: 1501 seconds
#
# Revision: 0
# Processed by: cddbd v1.5PL3 Copyright (c) Steve Scherf et al.
# Submitted via: CDex 1.50
#
DISCID=3e05db06
DTITLE=こんぺいとう - ひとにやさしいふたつ星
DYEAR=1991
DGENRE=JPop
TTITLE0=Theme(インストゥルメンタル)
TTITLE1=マーメイド志願
TTITLE2=嵐が来るわ
TTITLE3=Oh!Please!
TTITLE4=夢の卵
TTITLE5=いまあなたと
EXTD=YEAR: 1991/07/21
EXTT0=
EXTT1=
EXTT2=
EXTT3=
EXTT4=
EXTT5=
PLAYORDER=
